<?xml version="1.0" encoding="utf-8"?>
<!-- Generator: Adobe Illustrator 27.8.1, SVG Export Plug-In . SVG Version: 6.00 Build 0)  -->
<svg version="1.1" xmlns="http://www.w3.org/2000/svg" xmlns:xlink="http://www.w3.org/1999/xlink" x="0px" y="0px"
	 viewBox="0 0 1077.1 1080" style="enable-background:new 0 0 1077.1 1080;" xml:space="preserve">
<style type="text/css">
	.st0{fill-rule:evenodd;clip-rule:evenodd;fill:url(#SVGID_1_);}
	.st1{fill-rule:evenodd;clip-rule:evenodd;fill:url(#SVGID_00000080190529424268041280000003438791083985244601_);}
	.st2{fill-rule:evenodd;clip-rule:evenodd;fill:url(#SVGID_00000081606714852444490560000012610335963480026521_);}
	.st3{fill-rule:evenodd;clip-rule:evenodd;fill:url(#SVGID_00000041999854243840346460000002801381317868843658_);}
	.st4{fill:url(#SVGID_00000104668022178185859630000011016941115648468378_);}
	.st5{fill:#FFFFFF;}
</style>
<g id="QuestPDF" xmlns:serif="http://www.serif.com/">
	
		<linearGradient id="SVGID_1_" gradientUnits="userSpaceOnUse" x1="-420.7849" y1="1080.0437" x2="-419.7849" y2="1080.0437" gradientTransform="matrix(1078.4303 1080 1080 -1078.4303 -712612.9375 1619152.375)">
		<stop  offset="0" style="stop-color:#CCCCCC"/>
		<stop  offset="1" style="stop-color:#999999"/>
	</linearGradient>
	<path class="st0" d="M602.1,818c-147.3,62.6-324.2,33.9-444.2-86.1C0.1,574.2,0.1,318,157.9,160.3l1.8-1.8l191.6,191.6
		c-49.6,48.4-80.3,115.9-80.3,190.4c0,147.3,120.1,266.9,268,266.9c19.1,0,37.8-2,55.8-5.8C597,807.1,599.5,812.6,602.1,818z
		 M1019.1,757.4c43.2-138.5,9.9-295.8-99.7-405.4c-156.7-156.7-410.7-157.3-568.2-1.9L158.4,157.3C255.8,60.1,390.2,0,538.6,0
		c297.2,0,538.6,241.3,538.6,538.6c0,81.3-18,158.4-50.4,227.5C1024.2,763.2,1021.6,760.3,1019.1,757.4z M800.2,599.6l0.1-0.6
		l-0.1,0.4L800.2,599.6z M800.6,597.9l-0.1,0.5l0.2-0.9L800.6,597.9z M801,596.2l-0.1,0.5l0.2-0.9L801,596.2z M801.3,594.6l-0.1,0.5
		l0.2-0.9L801.3,594.6z M801.6,593l-0.1,0.5l0.2-0.9L801.6,593z M802,591.3l-0.1,0.5l0.2-0.9L802,591.3z M802.3,589.7l-0.1,0.5
		l0.2-0.9L802.3,589.7z M802.6,588l-0.1,0.5l0.2-0.9L802.6,588z M802.9,586.4l-0.1,0.6l0.2-0.9L802.9,586.4z M803.2,584.7l-0.1,0.6
		l0.2-0.9L803.2,584.7z M803.4,583.1l-0.1,0.6l0.1-0.9L803.4,583.1z M803.7,581.4l-0.1,0.6l0.1-0.9L803.7,581.4z M804,579.7
		l-0.1,0.6l0.1-0.8L804,579.7z M804.2,578.1l-0.1,0.6l0.1-0.9L804.2,578.1z M804.4,576.4l-0.1,0.6l0.1-0.9L804.4,576.4z
		 M804.6,574.7l-0.1,0.6l0.1-0.8L804.6,574.7z M804.9,573l-0.1,0.6l0.1-0.8L804.9,573z M805.1,571.3L805,572l0.1-0.8L805.1,571.3z
		 M805.2,569.7l-0.1,0.6l0.1-0.8L805.2,569.7z M805.4,568l-0.1,0.7l0.1-0.8L805.4,568z M805.6,566.3l-0.1,0.7l0.1-0.8L805.6,566.3z
		 M805.7,564.6l-0.1,0.7l0.1-0.8L805.7,564.6z M805.9,562.7l-0.1,0.8L805.9,562.7z M806,561.2l-0.1,0.7l0.1-0.8L806,561.2z
		 M806.2,559.5l0,0.7l0.1-0.8L806.2,559.5z M806.3,557.8l0,0.7l0.1-0.8L806.3,557.8z M806.4,556.1l0,0.7L806.4,556.1L806.4,556.1z
		 M806.5,554.3l0,0.7L806.5,554.3L806.5,554.3z M806.6,552.6l0,0.7L806.6,552.6L806.6,552.6z M806.6,550.9l0,0.7L806.6,550.9
		L806.6,550.9z M806.7,549.2l0,0.7L806.7,549.2L806.7,549.2z M806.7,547.5l0,0.7L806.7,547.5L806.7,547.5z M806.8,545.7l0,0.7
		L806.8,545.7L806.8,545.7z M806.8,544l0,0.7L806.8,544L806.8,544z M441.7,291.8c-16.3,6.3-31.8,14.2-46.4,23.4
		c-14.6,9.2-28.2,19.8-40.7,31.6C379.6,323.2,409.1,304.4,441.7,291.8z M616,284.9c2.6,0.8,5.1,1.6,7.6,2.4c2.5,0.8,5,1.7,7.5,2.6
		C626.2,288.1,621.1,286.5,616,284.9z M605,281.9c0.8,0.2,1.7,0.4,2.5,0.6c0.8,0.2,1.7,0.4,2.5,0.7
		C608.3,282.7,606.6,282.3,605,281.9z M570.1,275.5c5.7,0.7,11.3,1.5,16.8,2.5c5.5,1,11,2.2,16.5,3.5
		C592.5,278.8,581.4,276.8,570.1,275.5z M544.3,273.7c-1.8,0-3.7-0.1-5.5-0.1C540.7,273.7,542.5,273.7,544.3,273.7l1.8,0l1.7,0
		l0.6,0l1.4,0c1.1,0,2.3,0.1,3.4,0.2l0.2,0l0.5,0l0.7,0l0.5,0l0.9,0.1l0.5,0l0.2,0l0.3,0l1.8,0.1l1.8,0.1l0.3,0l0.2,0l0.5,0l0.9,0.1
		l0.5,0l0.4,0l0.4,0l0.5,0l0.9,0.1l0.5,0l0.2,0c0.7,0.1,1.4,0.1,2,0.2l-2-0.2l-0.6-0.1l-1.4-0.1l-0.7-0.1l-1.4-0.1l-0.6-0.1
		l-2.1-0.2l-2.1-0.1l-0.6,0l-1.4-0.1l-0.7,0l-0.8,0l-4.8-0.2l-2.2-0.1L544.3,273.7z"/>
	
		<linearGradient id="SVGID_00000035514012659205718530000013806042489960036027_" gradientUnits="userSpaceOnUse" x1="-420.7849" y1="1079.9554" x2="-419.7849" y2="1079.9554" gradientTransform="matrix(1078.4303 1080 1080 -1078.4303 -712612.9375 1619152.375)">
		<stop  offset="0" style="stop-color:#555555"/>
		<stop  offset="1" style="stop-color:#888888"/>
	</linearGradient>
	<path style="fill-rule:evenodd;clip-rule:evenodd;fill:url(#SVGID_00000035514012659205718530000013806042489960036027_);" d="
		M761.8,1028.8c-68,31-143.6,48.4-223.2,48.4C241.3,1077.1,0,835.8,0,538.6c0-147.9,59.8-282,156.5-379.4l1.3,1.3
		C0.1,318.1,0.2,574.2,157.9,731.9c120,120,297,148.3,444.2,85.7C640.3,898.5,694.9,970.6,761.8,1028.8z M800.2,599.6
		c4.3-19,6.6-38.8,6.6-59.1c0-147.3-120.1-266.9-268-266.9c-74,0-141,29.9-189.6,78.3c157.3-157.3,412.8-157.3,570.1,0
		c109.6,109.6,142.9,266.9,99.7,405.4C958.5,690.6,884,636.4,800.2,599.6z"/>
	
		<linearGradient id="SVGID_00000023982987991132867410000010974835886504718985_" gradientUnits="userSpaceOnUse" x1="-420.7849" y1="1080.0004" x2="-419.7849" y2="1080.0004" gradientTransform="matrix(539.2151 539.2151 539.2151 -539.2151 -354919.5625 809786.6875)">
		<stop  offset="0" style="stop-color:#99F5FF"/>
		<stop  offset="1" style="stop-color:#337FFF"/>
	</linearGradient>
	<path style="fill-rule:evenodd;clip-rule:evenodd;fill:url(#SVGID_00000023982987991132867410000010974835886504718985_);" d="
		M646.3,648.4c241.9-0.4,429.9,192.4,430.8,428.1l0,2.8C839.3,1079.2,646.3,886.2,646.3,648.4L646.3,648.4z"/>
	
		<linearGradient id="SVGID_00000024706287519344812790000018181294493493385656_" gradientUnits="userSpaceOnUse" x1="-420.7849" y1="1079.9841" x2="-419.7849" y2="1079.9841" gradientTransform="matrix(539.2151 539.2151 539.2151 -539.2151 -354919.5625 809786.6875)">
		<stop  offset="0" style="stop-color:#0097A8"/>
		<stop  offset="1" style="stop-color:#0F69FF"/>
	</linearGradient>
	<path style="fill-rule:evenodd;clip-rule:evenodd;fill:url(#SVGID_00000024706287519344812790000018181294493493385656_);" d="
		M669,786.4c266-121.9,408.1,141.7,408.1,290.3c0,0.8,0,1.7,0,2.5C896.4,1078.2,727.4,962.5,669,786.4z"/>
	<script  xmlns=""></script>
</g>
<g id="Markdown">
	<g>
		
			<linearGradient id="SVGID_00000169546228003947770660000010469395440716311182_" gradientUnits="userSpaceOnUse" x1="359.9837" y1="507.1531" x2="713.2151" y2="507.1531">
			<stop  offset="0" style="stop-color:#555555"/>
			<stop  offset="1" style="stop-color:#888888"/>
		</linearGradient>
		<path style="fill:url(#SVGID_00000169546228003947770660000010469395440716311182_);" d="M377.8,401.9h317.6
			c9.9,0,17.8,8,17.8,17.8v174.8c0,9.9-8,17.8-17.8,17.8H377.8c-9.9,0-17.8-8-17.8-17.8V419.7C360,409.9,368,401.9,377.8,401.9z"/>
		<path class="st5" d="M404.6,567.8V446.5h35.7l35.7,44.6l35.7-44.6h35.7v121.3h-35.7v-69.6l-35.7,44.6l-35.7-44.6v69.6H404.6z
			 M627.6,567.8l-53.5-58.9h35.7v-62.4h35.7v62.4h35.7L627.6,567.8z"/>
		<script  xmlns=""></script>
	</g>
</g>
</svg>
